<mxfile host="65bd71144e">
    <diagram id="C5RBs43oDa-KdzZeNtuy" name="Class">
        <mxGraphModel dx="564" dy="468" grid="1" gridSize="10" guides="1" tooltips="1" connect="1" arrows="1" fold="1" page="1" pageScale="1" pageWidth="827" pageHeight="1169" math="0" shadow="0">
            <root>
                <mxCell id="WIyWlLk6GJQsqaUBKTNV-0"/>
                <mxCell id="WIyWlLk6GJQsqaUBKTNV-1" parent="WIyWlLk6GJQsqaUBKTNV-0"/>
                <mxCell id="zkfFHV4jXpPFQw0GAbJ--0" value="User" style="swimlane;fontStyle=2;align=center;verticalAlign=top;childLayout=stackLayout;horizontal=1;startSize=26;horizontalStack=0;resizeParent=1;resizeLast=0;collapsible=1;marginBottom=0;rounded=0;shadow=0;strokeWidth=1;" parent="WIyWlLk6GJQsqaUBKTNV-1" vertex="1">
                    <mxGeometry x="280" y="40" width="160" height="140" as="geometry">
                        <mxRectangle x="230" y="140" width="160" height="26" as="alternateBounds"/>
                    </mxGeometry>
                </mxCell>
                <mxCell id="zkfFHV4jXpPFQw0GAbJ--1" value="username" style="text;align=left;verticalAlign=top;spacingLeft=4;spacingRight=4;overflow=hidden;rotatable=0;points=[[0,0.5],[1,0.5]];portConstraint=eastwest;" parent="zkfFHV4jXpPFQw0GAbJ--0" vertex="1">
                    <mxGeometry y="26" width="160" height="26" as="geometry"/>
                </mxCell>
                <mxCell id="zkfFHV4jXpPFQw0GAbJ--2" value="email" style="text;align=left;verticalAlign=top;spacingLeft=4;spacingRight=4;overflow=hidden;rotatable=0;points=[[0,0.5],[1,0.5]];portConstraint=eastwest;rounded=0;shadow=0;html=0;" parent="zkfFHV4jXpPFQw0GAbJ--0" vertex="1">
                    <mxGeometry y="52" width="160" height="26" as="geometry"/>
                </mxCell>
                <mxCell id="zkfFHV4jXpPFQw0GAbJ--3" value="password" style="text;align=left;verticalAlign=top;spacingLeft=4;spacingRight=4;overflow=hidden;rotatable=0;points=[[0,0.5],[1,0.5]];portConstraint=eastwest;rounded=0;shadow=0;html=0;" parent="zkfFHV4jXpPFQw0GAbJ--0" vertex="1">
                    <mxGeometry y="78" width="160" height="26" as="geometry"/>
                </mxCell>
                <mxCell id="Qlnq0KVzMz7ZlYjBo9V--14" value="lastConnection" style="text;align=left;verticalAlign=top;spacingLeft=4;spacingRight=4;overflow=hidden;rotatable=0;points=[[0,0.5],[1,0.5]];portConstraint=eastwest;rounded=0;shadow=0;html=0;" parent="zkfFHV4jXpPFQw0GAbJ--0" vertex="1">
                    <mxGeometry y="104" width="160" height="26" as="geometry"/>
                </mxCell>
                <mxCell id="zkfFHV4jXpPFQw0GAbJ--4" value="" style="line;html=1;strokeWidth=1;align=left;verticalAlign=middle;spacingTop=-1;spacingLeft=3;spacingRight=3;rotatable=0;labelPosition=right;points=[];portConstraint=eastwest;" parent="zkfFHV4jXpPFQw0GAbJ--0" vertex="1">
                    <mxGeometry y="130" width="160" height="8" as="geometry"/>
                </mxCell>
                <mxCell id="zkfFHV4jXpPFQw0GAbJ--17" value="Profile" style="swimlane;fontStyle=0;align=center;verticalAlign=top;childLayout=stackLayout;horizontal=1;startSize=26;horizontalStack=0;resizeParent=1;resizeLast=0;collapsible=1;marginBottom=0;rounded=0;shadow=0;strokeWidth=1;" parent="WIyWlLk6GJQsqaUBKTNV-1" vertex="1">
                    <mxGeometry x="568" y="40" width="160" height="350" as="geometry">
                        <mxRectangle x="550" y="140" width="160" height="26" as="alternateBounds"/>
                    </mxGeometry>
                </mxCell>
                <mxCell id="zkfFHV4jXpPFQw0GAbJ--18" value="name" style="text;align=left;verticalAlign=top;spacingLeft=4;spacingRight=4;overflow=hidden;rotatable=0;points=[[0,0.5],[1,0.5]];portConstraint=eastwest;" parent="zkfFHV4jXpPFQw0GAbJ--17" vertex="1">
                    <mxGeometry y="26" width="160" height="26" as="geometry"/>
                </mxCell>
                <mxCell id="zkfFHV4jXpPFQw0GAbJ--19" value="lastname" style="text;align=left;verticalAlign=top;spacingLeft=4;spacingRight=4;overflow=hidden;rotatable=0;points=[[0,0.5],[1,0.5]];portConstraint=eastwest;rounded=0;shadow=0;html=0;" parent="zkfFHV4jXpPFQw0GAbJ--17" vertex="1">
                    <mxGeometry y="52" width="160" height="26" as="geometry"/>
                </mxCell>
                <mxCell id="zkfFHV4jXpPFQw0GAbJ--20" value="birthdate" style="text;align=left;verticalAlign=top;spacingLeft=4;spacingRight=4;overflow=hidden;rotatable=0;points=[[0,0.5],[1,0.5]];portConstraint=eastwest;rounded=0;shadow=0;html=0;" parent="zkfFHV4jXpPFQw0GAbJ--17" vertex="1">
                    <mxGeometry y="78" width="160" height="26" as="geometry"/>
                </mxCell>
                <mxCell id="zkfFHV4jXpPFQw0GAbJ--21" value="occupation" style="text;align=left;verticalAlign=top;spacingLeft=4;spacingRight=4;overflow=hidden;rotatable=0;points=[[0,0.5],[1,0.5]];portConstraint=eastwest;rounded=0;shadow=0;html=0;" parent="zkfFHV4jXpPFQw0GAbJ--17" vertex="1">
                    <mxGeometry y="104" width="160" height="26" as="geometry"/>
                </mxCell>
                <mxCell id="zkfFHV4jXpPFQw0GAbJ--22" value="address&#10;" style="text;align=left;verticalAlign=top;spacingLeft=4;spacingRight=4;overflow=hidden;rotatable=0;points=[[0,0.5],[1,0.5]];portConstraint=eastwest;rounded=0;shadow=0;html=0;" parent="zkfFHV4jXpPFQw0GAbJ--17" vertex="1">
                    <mxGeometry y="130" width="160" height="26" as="geometry"/>
                </mxCell>
                <mxCell id="Qlnq0KVzMz7ZlYjBo9V--6" value="postalCode" style="text;align=left;verticalAlign=top;spacingLeft=4;spacingRight=4;overflow=hidden;rotatable=0;points=[[0,0.5],[1,0.5]];portConstraint=eastwest;rounded=0;shadow=0;html=0;" parent="zkfFHV4jXpPFQw0GAbJ--17" vertex="1">
                    <mxGeometry y="156" width="160" height="26" as="geometry"/>
                </mxCell>
                <mxCell id="Qlnq0KVzMz7ZlYjBo9V--5" value="city&#10;" style="text;align=left;verticalAlign=top;spacingLeft=4;spacingRight=4;overflow=hidden;rotatable=0;points=[[0,0.5],[1,0.5]];portConstraint=eastwest;rounded=0;shadow=0;html=0;" parent="zkfFHV4jXpPFQw0GAbJ--17" vertex="1">
                    <mxGeometry y="182" width="160" height="26" as="geometry"/>
                </mxCell>
                <mxCell id="Qlnq0KVzMz7ZlYjBo9V--4" value="state" style="text;align=left;verticalAlign=top;spacingLeft=4;spacingRight=4;overflow=hidden;rotatable=0;points=[[0,0.5],[1,0.5]];portConstraint=eastwest;rounded=0;shadow=0;html=0;" parent="zkfFHV4jXpPFQw0GAbJ--17" vertex="1">
                    <mxGeometry y="208" width="160" height="26" as="geometry"/>
                </mxCell>
                <mxCell id="Qlnq0KVzMz7ZlYjBo9V--3" value="country&#10;" style="text;align=left;verticalAlign=top;spacingLeft=4;spacingRight=4;overflow=hidden;rotatable=0;points=[[0,0.5],[1,0.5]];portConstraint=eastwest;rounded=0;shadow=0;html=0;" parent="zkfFHV4jXpPFQw0GAbJ--17" vertex="1">
                    <mxGeometry y="234" width="160" height="26" as="geometry"/>
                </mxCell>
                <mxCell id="Qlnq0KVzMz7ZlYjBo9V--2" value="picture: string" style="text;align=left;verticalAlign=top;spacingLeft=4;spacingRight=4;overflow=hidden;rotatable=0;points=[[0,0.5],[1,0.5]];portConstraint=eastwest;rounded=0;shadow=0;html=0;" parent="zkfFHV4jXpPFQw0GAbJ--17" vertex="1">
                    <mxGeometry y="260" width="160" height="26" as="geometry"/>
                </mxCell>
                <mxCell id="Qlnq0KVzMz7ZlYjBo9V--0" value="gender: Male Female Other" style="text;align=left;verticalAlign=top;spacingLeft=4;spacingRight=4;overflow=hidden;rotatable=0;points=[[0,0.5],[1,0.5]];portConstraint=eastwest;rounded=0;shadow=0;html=0;" parent="zkfFHV4jXpPFQw0GAbJ--17" vertex="1">
                    <mxGeometry y="286" width="160" height="26" as="geometry"/>
                </mxCell>
                <mxCell id="Qlnq0KVzMz7ZlYjBo9V--7" value="phone&#10;" style="text;align=left;verticalAlign=top;spacingLeft=4;spacingRight=4;overflow=hidden;rotatable=0;points=[[0,0.5],[1,0.5]];portConstraint=eastwest;rounded=0;shadow=0;html=0;" parent="zkfFHV4jXpPFQw0GAbJ--17" vertex="1">
                    <mxGeometry y="312" width="160" height="26" as="geometry"/>
                </mxCell>
                <mxCell id="zkfFHV4jXpPFQw0GAbJ--23" value="" style="line;html=1;strokeWidth=1;align=left;verticalAlign=middle;spacingTop=-1;spacingLeft=3;spacingRight=3;rotatable=0;labelPosition=right;points=[];portConstraint=eastwest;" parent="zkfFHV4jXpPFQw0GAbJ--17" vertex="1">
                    <mxGeometry y="338" width="160" height="8" as="geometry"/>
                </mxCell>
                <mxCell id="zkfFHV4jXpPFQw0GAbJ--26" value="" style="endArrow=open;shadow=0;strokeWidth=1;rounded=0;endFill=1;edgeStyle=elbowEdgeStyle;elbow=vertical;" parent="WIyWlLk6GJQsqaUBKTNV-1" source="zkfFHV4jXpPFQw0GAbJ--0" target="zkfFHV4jXpPFQw0GAbJ--17" edge="1">
                    <mxGeometry x="0.5" y="41" relative="1" as="geometry">
                        <mxPoint x="440" y="112" as="sourcePoint"/>
                        <mxPoint x="600" y="112" as="targetPoint"/>
                        <mxPoint x="-40" y="32" as="offset"/>
                    </mxGeometry>
                </mxCell>
                <mxCell id="zkfFHV4jXpPFQw0GAbJ--27" value="0..1" style="resizable=0;align=left;verticalAlign=bottom;labelBackgroundColor=none;fontSize=12;" parent="zkfFHV4jXpPFQw0GAbJ--26" connectable="0" vertex="1">
                    <mxGeometry x="-1" relative="1" as="geometry">
                        <mxPoint y="4" as="offset"/>
                    </mxGeometry>
                </mxCell>
                <mxCell id="zkfFHV4jXpPFQw0GAbJ--28" value="1" style="resizable=0;align=right;verticalAlign=bottom;labelBackgroundColor=none;fontSize=12;" parent="zkfFHV4jXpPFQw0GAbJ--26" connectable="0" vertex="1">
                    <mxGeometry x="1" relative="1" as="geometry">
                        <mxPoint x="-7" y="4" as="offset"/>
                    </mxGeometry>
                </mxCell>
                <mxCell id="zkfFHV4jXpPFQw0GAbJ--29" value="lives at" style="text;html=1;resizable=0;points=[];;align=center;verticalAlign=middle;labelBackgroundColor=none;rounded=0;shadow=0;strokeWidth=1;fontSize=12;" parent="zkfFHV4jXpPFQw0GAbJ--26" vertex="1" connectable="0">
                    <mxGeometry x="0.5" y="49" relative="1" as="geometry">
                        <mxPoint x="-38" y="40" as="offset"/>
                    </mxGeometry>
                </mxCell>
                <mxCell id="Qlnq0KVzMz7ZlYjBo9V--8" value="Log" style="swimlane;fontStyle=2;align=center;verticalAlign=top;childLayout=stackLayout;horizontal=1;startSize=26;horizontalStack=0;resizeParent=1;resizeLast=0;collapsible=1;marginBottom=0;rounded=0;shadow=0;strokeWidth=1;" parent="WIyWlLk6GJQsqaUBKTNV-1" vertex="1">
                    <mxGeometry x="40" y="40" width="160" height="120" as="geometry">
                        <mxRectangle x="230" y="140" width="160" height="26" as="alternateBounds"/>
                    </mxGeometry>
                </mxCell>
                <mxCell id="Qlnq0KVzMz7ZlYjBo9V--9" value="timestamp" style="text;align=left;verticalAlign=top;spacingLeft=4;spacingRight=4;overflow=hidden;rotatable=0;points=[[0,0.5],[1,0.5]];portConstraint=eastwest;" parent="Qlnq0KVzMz7ZlYjBo9V--8" vertex="1">
                    <mxGeometry y="26" width="160" height="26" as="geometry"/>
                </mxCell>
                <mxCell id="Qlnq0KVzMz7ZlYjBo9V--10" value="userId" style="text;align=left;verticalAlign=top;spacingLeft=4;spacingRight=4;overflow=hidden;rotatable=0;points=[[0,0.5],[1,0.5]];portConstraint=eastwest;rounded=0;shadow=0;html=0;" parent="Qlnq0KVzMz7ZlYjBo9V--8" vertex="1">
                    <mxGeometry y="52" width="160" height="26" as="geometry"/>
                </mxCell>
                <mxCell id="Qlnq0KVzMz7ZlYjBo9V--11" value="description" style="text;align=left;verticalAlign=top;spacingLeft=4;spacingRight=4;overflow=hidden;rotatable=0;points=[[0,0.5],[1,0.5]];portConstraint=eastwest;rounded=0;shadow=0;html=0;" parent="Qlnq0KVzMz7ZlYjBo9V--8" vertex="1">
                    <mxGeometry y="78" width="160" height="26" as="geometry"/>
                </mxCell>
                <mxCell id="Qlnq0KVzMz7ZlYjBo9V--12" value="" style="line;html=1;strokeWidth=1;align=left;verticalAlign=middle;spacingTop=-1;spacingLeft=3;spacingRight=3;rotatable=0;labelPosition=right;points=[];portConstraint=eastwest;" parent="Qlnq0KVzMz7ZlYjBo9V--8" vertex="1">
                    <mxGeometry y="104" width="160" height="8" as="geometry"/>
                </mxCell>
                <mxCell id="Qlnq0KVzMz7ZlYjBo9V--15" value="occupation" style="swimlane;fontStyle=2;align=center;verticalAlign=top;childLayout=stackLayout;horizontal=1;startSize=26;horizontalStack=0;resizeParent=1;resizeLast=0;collapsible=1;marginBottom=0;rounded=0;shadow=0;strokeWidth=1;" parent="WIyWlLk6GJQsqaUBKTNV-1" vertex="1">
                    <mxGeometry x="280" y="410" width="160" height="70" as="geometry">
                        <mxRectangle x="230" y="140" width="160" height="26" as="alternateBounds"/>
                    </mxGeometry>
                </mxCell>
                <mxCell id="Qlnq0KVzMz7ZlYjBo9V--17" value="name" style="text;align=left;verticalAlign=top;spacingLeft=4;spacingRight=4;overflow=hidden;rotatable=0;points=[[0,0.5],[1,0.5]];portConstraint=eastwest;rounded=0;shadow=0;html=0;" parent="Qlnq0KVzMz7ZlYjBo9V--15" vertex="1">
                    <mxGeometry y="26" width="160" height="26" as="geometry"/>
                </mxCell>
                <mxCell id="Qlnq0KVzMz7ZlYjBo9V--19" value="" style="line;html=1;strokeWidth=1;align=left;verticalAlign=middle;spacingTop=-1;spacingLeft=3;spacingRight=3;rotatable=0;labelPosition=right;points=[];portConstraint=eastwest;" parent="Qlnq0KVzMz7ZlYjBo9V--15" vertex="1">
                    <mxGeometry y="52" width="160" height="8" as="geometry"/>
                </mxCell>
                <mxCell id="Qlnq0KVzMz7ZlYjBo9V--34" style="edgeStyle=orthogonalEdgeStyle;rounded=0;orthogonalLoop=1;jettySize=auto;html=1;exitX=0.5;exitY=1;exitDx=0;exitDy=0;" parent="WIyWlLk6GJQsqaUBKTNV-1" source="Qlnq0KVzMz7ZlYjBo9V--20" target="Qlnq0KVzMz7ZlYjBo9V--26" edge="1">
                    <mxGeometry relative="1" as="geometry"/>
                </mxCell>
                <mxCell id="Qlnq0KVzMz7ZlYjBo9V--20" value="city" style="swimlane;fontStyle=2;align=center;verticalAlign=top;childLayout=stackLayout;horizontal=1;startSize=26;horizontalStack=0;resizeParent=1;resizeLast=0;collapsible=1;marginBottom=0;rounded=0;shadow=0;strokeWidth=1;" parent="WIyWlLk6GJQsqaUBKTNV-1" vertex="1">
                    <mxGeometry x="568" y="450" width="160" height="90" as="geometry">
                        <mxRectangle x="230" y="140" width="160" height="26" as="alternateBounds"/>
                    </mxGeometry>
                </mxCell>
                <mxCell id="Qlnq0KVzMz7ZlYjBo9V--21" value="name" style="text;align=left;verticalAlign=top;spacingLeft=4;spacingRight=4;overflow=hidden;rotatable=0;points=[[0,0.5],[1,0.5]];portConstraint=eastwest;" parent="Qlnq0KVzMz7ZlYjBo9V--20" vertex="1">
                    <mxGeometry y="26" width="160" height="26" as="geometry"/>
                </mxCell>
                <mxCell id="Qlnq0KVzMz7ZlYjBo9V--22" value="stateId" style="text;align=left;verticalAlign=top;spacingLeft=4;spacingRight=4;overflow=hidden;rotatable=0;points=[[0,0.5],[1,0.5]];portConstraint=eastwest;rounded=0;shadow=0;html=0;" parent="Qlnq0KVzMz7ZlYjBo9V--20" vertex="1">
                    <mxGeometry y="52" width="160" height="26" as="geometry"/>
                </mxCell>
                <mxCell id="Qlnq0KVzMz7ZlYjBo9V--24" value="" style="line;html=1;strokeWidth=1;align=left;verticalAlign=middle;spacingTop=-1;spacingLeft=3;spacingRight=3;rotatable=0;labelPosition=right;points=[];portConstraint=eastwest;" parent="Qlnq0KVzMz7ZlYjBo9V--20" vertex="1">
                    <mxGeometry y="78" width="160" height="8" as="geometry"/>
                </mxCell>
                <mxCell id="Qlnq0KVzMz7ZlYjBo9V--25" style="edgeStyle=orthogonalEdgeStyle;rounded=0;orthogonalLoop=1;jettySize=auto;html=1;exitX=0.5;exitY=0;exitDx=0;exitDy=0;" parent="WIyWlLk6GJQsqaUBKTNV-1" source="Qlnq0KVzMz7ZlYjBo9V--15" target="zkfFHV4jXpPFQw0GAbJ--21" edge="1">
                    <mxGeometry relative="1" as="geometry">
                        <Array as="points">
                            <mxPoint x="360" y="230"/>
                            <mxPoint x="470" y="230"/>
                            <mxPoint x="470" y="157"/>
                        </Array>
                    </mxGeometry>
                </mxCell>
                <mxCell id="Qlnq0KVzMz7ZlYjBo9V--37" style="edgeStyle=orthogonalEdgeStyle;rounded=0;orthogonalLoop=1;jettySize=auto;html=1;entryX=0.5;entryY=0;entryDx=0;entryDy=0;" parent="WIyWlLk6GJQsqaUBKTNV-1" source="Qlnq0KVzMz7ZlYjBo9V--26" target="Qlnq0KVzMz7ZlYjBo9V--30" edge="1">
                    <mxGeometry relative="1" as="geometry"/>
                </mxCell>
                <mxCell id="Qlnq0KVzMz7ZlYjBo9V--26" value="state" style="swimlane;fontStyle=2;align=center;verticalAlign=top;childLayout=stackLayout;horizontal=1;startSize=26;horizontalStack=0;resizeParent=1;resizeLast=0;collapsible=1;marginBottom=0;rounded=0;shadow=0;strokeWidth=1;" parent="WIyWlLk6GJQsqaUBKTNV-1" vertex="1">
                    <mxGeometry x="568" y="570" width="160" height="90" as="geometry">
                        <mxRectangle x="230" y="140" width="160" height="26" as="alternateBounds"/>
                    </mxGeometry>
                </mxCell>
                <mxCell id="Qlnq0KVzMz7ZlYjBo9V--27" value="name" style="text;align=left;verticalAlign=top;spacingLeft=4;spacingRight=4;overflow=hidden;rotatable=0;points=[[0,0.5],[1,0.5]];portConstraint=eastwest;" parent="Qlnq0KVzMz7ZlYjBo9V--26" vertex="1">
                    <mxGeometry y="26" width="160" height="26" as="geometry"/>
                </mxCell>
                <mxCell id="Qlnq0KVzMz7ZlYjBo9V--28" value="countryId" style="text;align=left;verticalAlign=top;spacingLeft=4;spacingRight=4;overflow=hidden;rotatable=0;points=[[0,0.5],[1,0.5]];portConstraint=eastwest;rounded=0;shadow=0;html=0;" parent="Qlnq0KVzMz7ZlYjBo9V--26" vertex="1">
                    <mxGeometry y="52" width="160" height="26" as="geometry"/>
                </mxCell>
                <mxCell id="Qlnq0KVzMz7ZlYjBo9V--29" value="" style="line;html=1;strokeWidth=1;align=left;verticalAlign=middle;spacingTop=-1;spacingLeft=3;spacingRight=3;rotatable=0;labelPosition=right;points=[];portConstraint=eastwest;" parent="Qlnq0KVzMz7ZlYjBo9V--26" vertex="1">
                    <mxGeometry y="78" width="160" height="8" as="geometry"/>
                </mxCell>
                <mxCell id="Qlnq0KVzMz7ZlYjBo9V--30" value="country" style="swimlane;fontStyle=2;align=center;verticalAlign=top;childLayout=stackLayout;horizontal=1;startSize=26;horizontalStack=0;resizeParent=1;resizeLast=0;collapsible=1;marginBottom=0;rounded=0;shadow=0;strokeWidth=1;" parent="WIyWlLk6GJQsqaUBKTNV-1" vertex="1">
                    <mxGeometry x="568" y="685" width="160" height="65" as="geometry">
                        <mxRectangle x="230" y="140" width="160" height="26" as="alternateBounds"/>
                    </mxGeometry>
                </mxCell>
                <mxCell id="Qlnq0KVzMz7ZlYjBo9V--31" value="name" style="text;align=left;verticalAlign=top;spacingLeft=4;spacingRight=4;overflow=hidden;rotatable=0;points=[[0,0.5],[1,0.5]];portConstraint=eastwest;" parent="Qlnq0KVzMz7ZlYjBo9V--30" vertex="1">
                    <mxGeometry y="26" width="160" height="26" as="geometry"/>
                </mxCell>
                <mxCell id="Qlnq0KVzMz7ZlYjBo9V--33" value="" style="line;html=1;strokeWidth=1;align=left;verticalAlign=middle;spacingTop=-1;spacingLeft=3;spacingRight=3;rotatable=0;labelPosition=right;points=[];portConstraint=eastwest;" parent="Qlnq0KVzMz7ZlYjBo9V--30" vertex="1">
                    <mxGeometry y="52" width="160" height="8" as="geometry"/>
                </mxCell>
                <mxCell id="Qlnq0KVzMz7ZlYjBo9V--38" style="edgeStyle=orthogonalEdgeStyle;rounded=0;orthogonalLoop=1;jettySize=auto;html=1;exitX=0;exitY=0.5;exitDx=0;exitDy=0;" parent="WIyWlLk6GJQsqaUBKTNV-1" source="Qlnq0KVzMz7ZlYjBo9V--21" target="Qlnq0KVzMz7ZlYjBo9V--5" edge="1">
                    <mxGeometry relative="1" as="geometry">
                        <Array as="points">
                            <mxPoint x="510" y="489"/>
                            <mxPoint x="510" y="235"/>
                        </Array>
                        <mxPoint x="540" y="520" as="sourcePoint"/>
                    </mxGeometry>
                </mxCell>
                <mxCell id="Qlnq0KVzMz7ZlYjBo9V--39" style="edgeStyle=orthogonalEdgeStyle;rounded=0;orthogonalLoop=1;jettySize=auto;html=1;" parent="WIyWlLk6GJQsqaUBKTNV-1" source="Qlnq0KVzMz7ZlYjBo9V--26" target="Qlnq0KVzMz7ZlYjBo9V--4" edge="1">
                    <mxGeometry relative="1" as="geometry">
                        <Array as="points">
                            <mxPoint x="490" y="620"/>
                            <mxPoint x="490" y="261"/>
                        </Array>
                        <mxPoint x="530" y="635" as="sourcePoint"/>
                    </mxGeometry>
                </mxCell>
                <mxCell id="Qlnq0KVzMz7ZlYjBo9V--40" style="edgeStyle=orthogonalEdgeStyle;rounded=0;orthogonalLoop=1;jettySize=auto;html=1;" parent="WIyWlLk6GJQsqaUBKTNV-1" source="Qlnq0KVzMz7ZlYjBo9V--31" target="Qlnq0KVzMz7ZlYjBo9V--3" edge="1">
                    <mxGeometry relative="1" as="geometry">
                        <Array as="points">
                            <mxPoint x="460" y="724"/>
                            <mxPoint x="460" y="287"/>
                        </Array>
                    </mxGeometry>
                </mxCell>
                <mxCell id="0" style="edgeStyle=orthogonalEdgeStyle;rounded=0;orthogonalLoop=1;jettySize=auto;html=1;entryX=0;entryY=0.5;entryDx=0;entryDy=0;" parent="WIyWlLk6GJQsqaUBKTNV-1" source="Qlnq0KVzMz7ZlYjBo9V--10" target="zkfFHV4jXpPFQw0GAbJ--2" edge="1">
                    <mxGeometry relative="1" as="geometry"/>
                </mxCell>
                <mxCell id="1" value="role" style="swimlane;fontStyle=2;align=center;verticalAlign=top;childLayout=stackLayout;horizontal=1;startSize=26;horizontalStack=0;resizeParent=1;resizeLast=0;collapsible=1;marginBottom=0;rounded=0;shadow=0;strokeWidth=1;" parent="WIyWlLk6GJQsqaUBKTNV-1" vertex="1">
                    <mxGeometry x="40" y="420" width="160" height="80" as="geometry">
                        <mxRectangle x="230" y="140" width="160" height="26" as="alternateBounds"/>
                    </mxGeometry>
                </mxCell>
                <mxCell id="2" value="name&#10;description" style="text;align=left;verticalAlign=top;spacingLeft=4;spacingRight=4;overflow=hidden;rotatable=0;points=[[0,0.5],[1,0.5]];portConstraint=eastwest;rounded=0;shadow=0;html=0;" parent="1" vertex="1">
                    <mxGeometry y="26" width="160" height="34" as="geometry"/>
                </mxCell>
                <mxCell id="3" value="" style="line;html=1;strokeWidth=1;align=left;verticalAlign=middle;spacingTop=-1;spacingLeft=3;spacingRight=3;rotatable=0;labelPosition=right;points=[];portConstraint=eastwest;" parent="1" vertex="1">
                    <mxGeometry y="60" width="160" height="20" as="geometry"/>
                </mxCell>
                <mxCell id="9" style="edgeStyle=orthogonalEdgeStyle;rounded=0;orthogonalLoop=1;jettySize=auto;html=1;exitX=0.5;exitY=1;exitDx=0;exitDy=0;endArrow=none;endFill=0;" parent="WIyWlLk6GJQsqaUBKTNV-1" source="5" target="1" edge="1">
                    <mxGeometry relative="1" as="geometry"/>
                </mxCell>
                <mxCell id="5" value="userRole" style="swimlane;fontStyle=2;align=center;verticalAlign=top;childLayout=stackLayout;horizontal=1;startSize=26;horizontalStack=0;resizeParent=1;resizeLast=0;collapsible=1;marginBottom=0;rounded=0;shadow=0;strokeWidth=1;" parent="WIyWlLk6GJQsqaUBKTNV-1" vertex="1">
                    <mxGeometry x="40" y="260" width="160" height="80" as="geometry">
                        <mxRectangle x="230" y="140" width="160" height="26" as="alternateBounds"/>
                    </mxGeometry>
                </mxCell>
                <mxCell id="6" value="userId&#10;roleId" style="text;align=left;verticalAlign=top;spacingLeft=4;spacingRight=4;overflow=hidden;rotatable=0;points=[[0,0.5],[1,0.5]];portConstraint=eastwest;rounded=0;shadow=0;html=0;" parent="5" vertex="1">
                    <mxGeometry y="26" width="160" height="34" as="geometry"/>
                </mxCell>
                <mxCell id="7" value="" style="line;html=1;strokeWidth=1;align=left;verticalAlign=middle;spacingTop=-1;spacingLeft=3;spacingRight=3;rotatable=0;labelPosition=right;points=[];portConstraint=eastwest;" parent="5" vertex="1">
                    <mxGeometry y="60" width="160" height="20" as="geometry"/>
                </mxCell>
                <mxCell id="8" style="edgeStyle=orthogonalEdgeStyle;rounded=0;orthogonalLoop=1;jettySize=auto;html=1;exitX=0.25;exitY=1;exitDx=0;exitDy=0;endArrow=none;endFill=0;" parent="WIyWlLk6GJQsqaUBKTNV-1" source="zkfFHV4jXpPFQw0GAbJ--0" target="5" edge="1">
                    <mxGeometry relative="1" as="geometry">
                        <Array as="points">
                            <mxPoint x="320" y="230"/>
                            <mxPoint x="120" y="230"/>
                        </Array>
                    </mxGeometry>
                </mxCell>
            </root>
        </mxGraphModel>
    </diagram>
    <diagram id="wOdTsvnrrXbyaU-girc5" name="UC">
        <mxGraphModel dx="940" dy="780" grid="1" gridSize="10" guides="1" tooltips="1" connect="1" arrows="1" fold="1" page="1" pageScale="1" pageWidth="827" pageHeight="1169" math="0" shadow="0">
            <root>
                <mxCell id="CS7l3BK3sfJCH_2FNT3w-0"/>
                <mxCell id="CS7l3BK3sfJCH_2FNT3w-1" parent="CS7l3BK3sfJCH_2FNT3w-0"/>
                <mxCell id="CS7l3BK3sfJCH_2FNT3w-2" value="Usuario" style="shape=umlActor;verticalLabelPosition=bottom;verticalAlign=top;html=1;outlineConnect=0;" vertex="1" parent="CS7l3BK3sfJCH_2FNT3w-1">
                    <mxGeometry x="100" y="130" width="30" height="60" as="geometry"/>
                </mxCell>
                <mxCell id="CS7l3BK3sfJCH_2FNT3w-6" value="" style="swimlane;startSize=0;" vertex="1" parent="CS7l3BK3sfJCH_2FNT3w-1">
                    <mxGeometry x="240" y="30" width="500" height="360" as="geometry"/>
                </mxCell>
                <mxCell id="CS7l3BK3sfJCH_2FNT3w-7" value="Registrar cuenta" style="ellipse;whiteSpace=wrap;html=1;" vertex="1" parent="CS7l3BK3sfJCH_2FNT3w-6">
                    <mxGeometry x="54" y="50" width="120" height="60" as="geometry"/>
                </mxCell>
                <mxCell id="CS7l3BK3sfJCH_2FNT3w-8" value="Iniciar sesión" style="ellipse;whiteSpace=wrap;html=1;" vertex="1" parent="CS7l3BK3sfJCH_2FNT3w-6">
                    <mxGeometry x="54" y="150" width="120" height="60" as="geometry"/>
                </mxCell>
                <mxCell id="CS7l3BK3sfJCH_2FNT3w-9" value="Ver cuenta de&lt;br&gt;usuario" style="ellipse;whiteSpace=wrap;html=1;" vertex="1" parent="CS7l3BK3sfJCH_2FNT3w-6">
                    <mxGeometry x="320" y="150" width="120" height="60" as="geometry"/>
                </mxCell>
                <mxCell id="CS7l3BK3sfJCH_2FNT3w-15" value="Borrar cuenta" style="ellipse;whiteSpace=wrap;html=1;" vertex="1" parent="CS7l3BK3sfJCH_2FNT3w-6">
                    <mxGeometry x="320" y="260" width="120" height="60" as="geometry"/>
                </mxCell>
                <mxCell id="CS7l3BK3sfJCH_2FNT3w-18" value="&amp;lt;&amp;lt;exclude&amp;gt;&amp;gt;" style="endArrow=none;dashed=1;html=1;entryX=0;entryY=0.5;entryDx=0;entryDy=0;exitX=1;exitY=0.5;exitDx=0;exitDy=0;startArrow=classic;startFill=1;" edge="1" parent="CS7l3BK3sfJCH_2FNT3w-6" source="CS7l3BK3sfJCH_2FNT3w-8" target="CS7l3BK3sfJCH_2FNT3w-9">
                    <mxGeometry width="50" height="50" relative="1" as="geometry">
                        <mxPoint x="160" y="240" as="sourcePoint"/>
                        <mxPoint x="210" y="190" as="targetPoint"/>
                    </mxGeometry>
                </mxCell>
                <mxCell id="CS7l3BK3sfJCH_2FNT3w-19" value="&amp;lt;&amp;lt;exclude&amp;gt;&amp;gt;" style="endArrow=none;dashed=1;html=1;entryX=0;entryY=0.5;entryDx=0;entryDy=0;exitX=1;exitY=1;exitDx=0;exitDy=0;startArrow=classic;startFill=1;" edge="1" parent="CS7l3BK3sfJCH_2FNT3w-6" source="CS7l3BK3sfJCH_2FNT3w-8" target="CS7l3BK3sfJCH_2FNT3w-15">
                    <mxGeometry width="50" height="50" relative="1" as="geometry">
                        <mxPoint x="414" y="210" as="sourcePoint"/>
                        <mxPoint x="560" y="210" as="targetPoint"/>
                        <Array as="points"/>
                    </mxGeometry>
                </mxCell>
                <mxCell id="CS7l3BK3sfJCH_2FNT3w-20" value="Listar usuarios" style="ellipse;whiteSpace=wrap;html=1;" vertex="1" parent="CS7l3BK3sfJCH_2FNT3w-6">
                    <mxGeometry x="320" y="30" width="120" height="60" as="geometry"/>
                </mxCell>
                <mxCell id="CS7l3BK3sfJCH_2FNT3w-21" value="&amp;lt;&amp;lt;exclude&amp;gt;&amp;gt;" style="endArrow=none;dashed=1;html=1;entryX=0;entryY=0.5;entryDx=0;entryDy=0;exitX=1;exitY=0;exitDx=0;exitDy=0;startArrow=classic;startFill=1;" edge="1" parent="CS7l3BK3sfJCH_2FNT3w-6" source="CS7l3BK3sfJCH_2FNT3w-8" target="CS7l3BK3sfJCH_2FNT3w-20">
                    <mxGeometry width="50" height="50" relative="1" as="geometry">
                        <mxPoint x="160" y="240" as="sourcePoint"/>
                        <mxPoint x="210" y="190" as="targetPoint"/>
                    </mxGeometry>
                </mxCell>
                <mxCell id="CS7l3BK3sfJCH_2FNT3w-10" value="" style="endArrow=none;html=1;entryX=0;entryY=0.5;entryDx=0;entryDy=0;" edge="1" parent="CS7l3BK3sfJCH_2FNT3w-1" source="CS7l3BK3sfJCH_2FNT3w-2" target="CS7l3BK3sfJCH_2FNT3w-7">
                    <mxGeometry width="50" height="50" relative="1" as="geometry">
                        <mxPoint x="150" y="220" as="sourcePoint"/>
                        <mxPoint x="200" y="170" as="targetPoint"/>
                    </mxGeometry>
                </mxCell>
                <mxCell id="CS7l3BK3sfJCH_2FNT3w-13" value="" style="endArrow=none;html=1;entryX=0;entryY=0.5;entryDx=0;entryDy=0;" edge="1" parent="CS7l3BK3sfJCH_2FNT3w-1" source="CS7l3BK3sfJCH_2FNT3w-2" target="CS7l3BK3sfJCH_2FNT3w-8">
                    <mxGeometry width="50" height="50" relative="1" as="geometry">
                        <mxPoint x="130" y="156.86192468619242" as="sourcePoint"/>
                        <mxPoint x="298.6497046992449" y="121.57955968635042" as="targetPoint"/>
                        <Array as="points"/>
                    </mxGeometry>
                </mxCell>
            </root>
        </mxGraphModel>
    </diagram>
    <diagram id="0PW8FCXfwLLG95QwwHHR" name="Register Sequence">
        <mxGraphModel dx="940" dy="780" grid="1" gridSize="10" guides="1" tooltips="1" connect="1" arrows="1" fold="1" page="1" pageScale="1" pageWidth="827" pageHeight="1169" math="0" shadow="0">
            <root>
                <mxCell id="fP4NT7sPl7gcTSP_uhbU-0"/>
                <mxCell id="fP4NT7sPl7gcTSP_uhbU-1" parent="fP4NT7sPl7gcTSP_uhbU-0"/>
                <mxCell id="fP4NT7sPl7gcTSP_uhbU-4" value="BackEnd&lt;br&gt;API Restful" style="shape=cube;whiteSpace=wrap;html=1;boundedLbl=1;backgroundOutline=1;darkOpacity=0.05;darkOpacity2=0.1;size=10;" vertex="1" parent="fP4NT7sPl7gcTSP_uhbU-1">
                    <mxGeometry x="530" y="40" width="120" height="80" as="geometry"/>
                </mxCell>
                <mxCell id="fP4NT7sPl7gcTSP_uhbU-5" value="FrontEnd&lt;br&gt;Web Client" style="shape=cube;whiteSpace=wrap;html=1;boundedLbl=1;backgroundOutline=1;darkOpacity=0.05;darkOpacity2=0.1;size=10;" vertex="1" parent="fP4NT7sPl7gcTSP_uhbU-1">
                    <mxGeometry x="280" y="40" width="120" height="80" as="geometry"/>
                </mxCell>
                <mxCell id="fP4NT7sPl7gcTSP_uhbU-7" value="" style="line;strokeWidth=2;direction=south;html=1;" vertex="1" parent="fP4NT7sPl7gcTSP_uhbU-1">
                    <mxGeometry x="335" y="150" width="10" height="280" as="geometry"/>
                </mxCell>
                <mxCell id="fP4NT7sPl7gcTSP_uhbU-8" value="" style="line;strokeWidth=2;direction=south;html=1;" vertex="1" parent="fP4NT7sPl7gcTSP_uhbU-1">
                    <mxGeometry x="585" y="150" width="10" height="290" as="geometry"/>
                </mxCell>
                <mxCell id="fP4NT7sPl7gcTSP_uhbU-12" value="" style="html=1;points=[];perimeter=orthogonalPerimeter;" vertex="1" parent="fP4NT7sPl7gcTSP_uhbU-1">
                    <mxGeometry x="335" y="180" width="10" height="30" as="geometry"/>
                </mxCell>
                <mxCell id="fP4NT7sPl7gcTSP_uhbU-14" value="" style="html=1;points=[];perimeter=orthogonalPerimeter;" vertex="1" parent="fP4NT7sPl7gcTSP_uhbU-1">
                    <mxGeometry x="585" y="191" width="10" height="30" as="geometry"/>
                </mxCell>
                <mxCell id="fP4NT7sPl7gcTSP_uhbU-15" value="" style="html=1;points=[];perimeter=orthogonalPerimeter;" vertex="1" parent="fP4NT7sPl7gcTSP_uhbU-1">
                    <mxGeometry x="585" y="250" width="10" height="80" as="geometry"/>
                </mxCell>
                <mxCell id="fP4NT7sPl7gcTSP_uhbU-17" value="&amp;lt;Request&amp;gt;: Create Account" style="html=1;verticalAlign=bottom;endArrow=block;exitX=1.3;exitY=0.733;exitDx=0;exitDy=0;exitPerimeter=0;" edge="1" parent="fP4NT7sPl7gcTSP_uhbU-1" source="fP4NT7sPl7gcTSP_uhbU-12">
                    <mxGeometry width="80" relative="1" as="geometry">
                        <mxPoint x="350" y="200" as="sourcePoint"/>
                        <mxPoint x="584" y="202" as="targetPoint"/>
                    </mxGeometry>
                </mxCell>
                <mxCell id="fP4NT7sPl7gcTSP_uhbU-21" value="Process&lt;br&gt;Register Account" style="html=1;verticalAlign=bottom;endArrow=block;" edge="1" parent="fP4NT7sPl7gcTSP_uhbU-1">
                    <mxGeometry x="0.1" width="80" relative="1" as="geometry">
                        <mxPoint x="595" y="260" as="sourcePoint"/>
                        <mxPoint x="595" y="320" as="targetPoint"/>
                        <Array as="points">
                            <mxPoint x="665" y="260"/>
                            <mxPoint x="665" y="320"/>
                        </Array>
                        <mxPoint y="-1" as="offset"/>
                    </mxGeometry>
                </mxCell>
                <mxCell id="fP4NT7sPl7gcTSP_uhbU-22" value="" style="html=1;points=[];perimeter=orthogonalPerimeter;" vertex="1" parent="fP4NT7sPl7gcTSP_uhbU-1">
                    <mxGeometry x="585" y="360" width="10" height="30" as="geometry"/>
                </mxCell>
                <mxCell id="fP4NT7sPl7gcTSP_uhbU-23" value="" style="html=1;points=[];perimeter=orthogonalPerimeter;" vertex="1" parent="fP4NT7sPl7gcTSP_uhbU-1">
                    <mxGeometry x="335" y="360" width="10" height="30" as="geometry"/>
                </mxCell>
                <mxCell id="fP4NT7sPl7gcTSP_uhbU-24" value="&amp;lt;ACK&amp;gt;: Register status" style="html=1;verticalAlign=bottom;endArrow=open;dashed=1;endSize=8;" edge="1" parent="fP4NT7sPl7gcTSP_uhbU-1">
                    <mxGeometry relative="1" as="geometry">
                        <mxPoint x="585" y="369.40999999999997" as="sourcePoint"/>
                        <mxPoint x="350" y="369" as="targetPoint"/>
                    </mxGeometry>
                </mxCell>
            </root>
        </mxGraphModel>
    </diagram>
    <diagram name="InitSession Sequence" id="0oGioljFtq8x2WB8Ml0N">
        <mxGraphModel dx="806" dy="669" grid="1" gridSize="10" guides="1" tooltips="1" connect="1" arrows="1" fold="1" page="1" pageScale="1" pageWidth="827" pageHeight="1169" math="0" shadow="0">
            <root>
                <mxCell id="V-jxr84rNfIzJQvpIB75-0"/>
                <mxCell id="V-jxr84rNfIzJQvpIB75-1" parent="V-jxr84rNfIzJQvpIB75-0"/>
                <mxCell id="V-jxr84rNfIzJQvpIB75-3" value="BackEnd&lt;br&gt;API Restful" style="shape=cube;whiteSpace=wrap;html=1;boundedLbl=1;backgroundOutline=1;darkOpacity=0.05;darkOpacity2=0.1;size=10;" vertex="1" parent="V-jxr84rNfIzJQvpIB75-1">
                    <mxGeometry x="530" y="40" width="120" height="80" as="geometry"/>
                </mxCell>
                <mxCell id="V-jxr84rNfIzJQvpIB75-4" value="FrontEnd&lt;br&gt;Web Client" style="shape=cube;whiteSpace=wrap;html=1;boundedLbl=1;backgroundOutline=1;darkOpacity=0.05;darkOpacity2=0.1;size=10;" vertex="1" parent="V-jxr84rNfIzJQvpIB75-1">
                    <mxGeometry x="280" y="40" width="120" height="80" as="geometry"/>
                </mxCell>
                <mxCell id="V-jxr84rNfIzJQvpIB75-6" value="" style="line;strokeWidth=2;direction=south;html=1;" vertex="1" parent="V-jxr84rNfIzJQvpIB75-1">
                    <mxGeometry x="335" y="150" width="10" height="460" as="geometry"/>
                </mxCell>
                <mxCell id="V-jxr84rNfIzJQvpIB75-7" value="" style="line;strokeWidth=2;direction=south;html=1;" vertex="1" parent="V-jxr84rNfIzJQvpIB75-1">
                    <mxGeometry x="585" y="150" width="10" height="460" as="geometry"/>
                </mxCell>
                <mxCell id="V-jxr84rNfIzJQvpIB75-10" value="" style="html=1;points=[];perimeter=orthogonalPerimeter;" vertex="1" parent="V-jxr84rNfIzJQvpIB75-1">
                    <mxGeometry x="335" y="180" width="10" height="30" as="geometry"/>
                </mxCell>
                <mxCell id="V-jxr84rNfIzJQvpIB75-12" value="" style="html=1;points=[];perimeter=orthogonalPerimeter;" vertex="1" parent="V-jxr84rNfIzJQvpIB75-1">
                    <mxGeometry x="585" y="191" width="10" height="30" as="geometry"/>
                </mxCell>
                <mxCell id="V-jxr84rNfIzJQvpIB75-13" value="" style="html=1;points=[];perimeter=orthogonalPerimeter;" vertex="1" parent="V-jxr84rNfIzJQvpIB75-1">
                    <mxGeometry x="585" y="250" width="10" height="80" as="geometry"/>
                </mxCell>
                <mxCell id="V-jxr84rNfIzJQvpIB75-14" value="&amp;lt;Request&amp;gt;: Init session" style="html=1;verticalAlign=bottom;endArrow=block;exitX=1.3;exitY=0.733;exitDx=0;exitDy=0;exitPerimeter=0;" edge="1" parent="V-jxr84rNfIzJQvpIB75-1" source="V-jxr84rNfIzJQvpIB75-10">
                    <mxGeometry width="80" relative="1" as="geometry">
                        <mxPoint x="350" y="200" as="sourcePoint"/>
                        <mxPoint x="584" y="202" as="targetPoint"/>
                    </mxGeometry>
                </mxCell>
                <mxCell id="V-jxr84rNfIzJQvpIB75-15" value="Verify&lt;br&gt;session" style="html=1;verticalAlign=bottom;endArrow=block;" edge="1" parent="V-jxr84rNfIzJQvpIB75-1">
                    <mxGeometry x="0.1" width="80" relative="1" as="geometry">
                        <mxPoint x="595" y="260" as="sourcePoint"/>
                        <mxPoint x="595" y="320" as="targetPoint"/>
                        <Array as="points">
                            <mxPoint x="640" y="260"/>
                            <mxPoint x="640" y="320"/>
                        </Array>
                        <mxPoint y="-1" as="offset"/>
                    </mxGeometry>
                </mxCell>
                <mxCell id="V-jxr84rNfIzJQvpIB75-16" value="" style="html=1;points=[];perimeter=orthogonalPerimeter;" vertex="1" parent="V-jxr84rNfIzJQvpIB75-1">
                    <mxGeometry x="585" y="480" width="10" height="30" as="geometry"/>
                </mxCell>
                <mxCell id="V-jxr84rNfIzJQvpIB75-17" value="" style="html=1;points=[];perimeter=orthogonalPerimeter;" vertex="1" parent="V-jxr84rNfIzJQvpIB75-1">
                    <mxGeometry x="335" y="480" width="10" height="30" as="geometry"/>
                </mxCell>
                <mxCell id="V-jxr84rNfIzJQvpIB75-18" value="&amp;lt;ACK&amp;gt;: JWT login response" style="html=1;verticalAlign=bottom;endArrow=open;dashed=1;endSize=8;" edge="1" parent="V-jxr84rNfIzJQvpIB75-1">
                    <mxGeometry relative="1" as="geometry">
                        <mxPoint x="585" y="489.40999999999997" as="sourcePoint"/>
                        <mxPoint x="350" y="489" as="targetPoint"/>
                    </mxGeometry>
                </mxCell>
                <mxCell id="V-jxr84rNfIzJQvpIB75-20" value="" style="html=1;points=[];perimeter=orthogonalPerimeter;" vertex="1" parent="V-jxr84rNfIzJQvpIB75-1">
                    <mxGeometry x="585" y="350" width="10" height="80" as="geometry"/>
                </mxCell>
                <mxCell id="V-jxr84rNfIzJQvpIB75-21" value="Generate JWT" style="html=1;verticalAlign=bottom;endArrow=block;" edge="1" parent="V-jxr84rNfIzJQvpIB75-1">
                    <mxGeometry x="0.1" width="80" relative="1" as="geometry">
                        <mxPoint x="595" y="360" as="sourcePoint"/>
                        <mxPoint x="595" y="420" as="targetPoint"/>
                        <Array as="points">
                            <mxPoint x="640" y="360"/>
                            <mxPoint x="640" y="420"/>
                        </Array>
                        <mxPoint as="offset"/>
                    </mxGeometry>
                </mxCell>
            </root>
        </mxGraphModel>
    </diagram>
    <diagram name="ViewAccountInfo Sequence" id="nviPKotlcnFKA6kpVz6n">
        <mxGraphModel dx="806" dy="669" grid="1" gridSize="10" guides="1" tooltips="1" connect="1" arrows="1" fold="1" page="1" pageScale="1" pageWidth="827" pageHeight="1169" math="0" shadow="0">
            <root>
                <mxCell id="fSdOwEgVRoXUG8ocuiGU-0"/>
                <mxCell id="fSdOwEgVRoXUG8ocuiGU-1" parent="fSdOwEgVRoXUG8ocuiGU-0"/>
                <mxCell id="fSdOwEgVRoXUG8ocuiGU-3" value="BackEnd&lt;br&gt;API Restful" style="shape=cube;whiteSpace=wrap;html=1;boundedLbl=1;backgroundOutline=1;darkOpacity=0.05;darkOpacity2=0.1;size=10;" vertex="1" parent="fSdOwEgVRoXUG8ocuiGU-1">
                    <mxGeometry x="400" y="50" width="120" height="80" as="geometry"/>
                </mxCell>
                <mxCell id="fSdOwEgVRoXUG8ocuiGU-4" value="FrontEnd&lt;br&gt;Web Client" style="shape=cube;whiteSpace=wrap;html=1;boundedLbl=1;backgroundOutline=1;darkOpacity=0.05;darkOpacity2=0.1;size=10;" vertex="1" parent="fSdOwEgVRoXUG8ocuiGU-1">
                    <mxGeometry x="150" y="50" width="120" height="80" as="geometry"/>
                </mxCell>
                <mxCell id="fSdOwEgVRoXUG8ocuiGU-6" value="" style="line;strokeWidth=2;direction=south;html=1;" vertex="1" parent="fSdOwEgVRoXUG8ocuiGU-1">
                    <mxGeometry x="205" y="160" width="10" height="460" as="geometry"/>
                </mxCell>
                <mxCell id="fSdOwEgVRoXUG8ocuiGU-7" value="" style="line;strokeWidth=2;direction=south;html=1;" vertex="1" parent="fSdOwEgVRoXUG8ocuiGU-1">
                    <mxGeometry x="455" y="160" width="10" height="460" as="geometry"/>
                </mxCell>
                <mxCell id="fSdOwEgVRoXUG8ocuiGU-10" value="" style="html=1;points=[];perimeter=orthogonalPerimeter;" vertex="1" parent="fSdOwEgVRoXUG8ocuiGU-1">
                    <mxGeometry x="205" y="190" width="10" height="30" as="geometry"/>
                </mxCell>
                <mxCell id="fSdOwEgVRoXUG8ocuiGU-12" value="" style="html=1;points=[];perimeter=orthogonalPerimeter;" vertex="1" parent="fSdOwEgVRoXUG8ocuiGU-1">
                    <mxGeometry x="455" y="201" width="10" height="30" as="geometry"/>
                </mxCell>
                <mxCell id="fSdOwEgVRoXUG8ocuiGU-13" value="" style="html=1;points=[];perimeter=orthogonalPerimeter;" vertex="1" parent="fSdOwEgVRoXUG8ocuiGU-1">
                    <mxGeometry x="455" y="260" width="10" height="80" as="geometry"/>
                </mxCell>
                <mxCell id="fSdOwEgVRoXUG8ocuiGU-14" value="&amp;lt;Request&amp;gt;: JWT + view account" style="html=1;verticalAlign=bottom;endArrow=block;exitX=1.3;exitY=0.733;exitDx=0;exitDy=0;exitPerimeter=0;" edge="1" parent="fSdOwEgVRoXUG8ocuiGU-1" source="fSdOwEgVRoXUG8ocuiGU-10">
                    <mxGeometry width="80" relative="1" as="geometry">
                        <mxPoint x="220" y="210" as="sourcePoint"/>
                        <mxPoint x="454" y="212" as="targetPoint"/>
                    </mxGeometry>
                </mxCell>
                <mxCell id="fSdOwEgVRoXUG8ocuiGU-15" value="Verify&lt;br&gt;JWT" style="html=1;verticalAlign=bottom;endArrow=block;" edge="1" parent="fSdOwEgVRoXUG8ocuiGU-1">
                    <mxGeometry x="0.1" width="80" relative="1" as="geometry">
                        <mxPoint x="465" y="270" as="sourcePoint"/>
                        <mxPoint x="465" y="330" as="targetPoint"/>
                        <Array as="points">
                            <mxPoint x="510" y="270"/>
                            <mxPoint x="510" y="330"/>
                        </Array>
                        <mxPoint y="-1" as="offset"/>
                    </mxGeometry>
                </mxCell>
                <mxCell id="fSdOwEgVRoXUG8ocuiGU-16" value="" style="html=1;points=[];perimeter=orthogonalPerimeter;" vertex="1" parent="fSdOwEgVRoXUG8ocuiGU-1">
                    <mxGeometry x="455" y="490" width="10" height="30" as="geometry"/>
                </mxCell>
                <mxCell id="fSdOwEgVRoXUG8ocuiGU-17" value="" style="html=1;points=[];perimeter=orthogonalPerimeter;" vertex="1" parent="fSdOwEgVRoXUG8ocuiGU-1">
                    <mxGeometry x="205" y="490" width="10" height="30" as="geometry"/>
                </mxCell>
                <mxCell id="fSdOwEgVRoXUG8ocuiGU-18" value="&amp;lt;ACK&amp;gt;: account info response" style="html=1;verticalAlign=bottom;endArrow=open;dashed=1;endSize=8;" edge="1" parent="fSdOwEgVRoXUG8ocuiGU-1">
                    <mxGeometry relative="1" as="geometry">
                        <mxPoint x="455" y="499.40999999999997" as="sourcePoint"/>
                        <mxPoint x="220" y="499" as="targetPoint"/>
                    </mxGeometry>
                </mxCell>
                <mxCell id="fSdOwEgVRoXUG8ocuiGU-20" value="" style="html=1;points=[];perimeter=orthogonalPerimeter;" vertex="1" parent="fSdOwEgVRoXUG8ocuiGU-1">
                    <mxGeometry x="455" y="360" width="10" height="80" as="geometry"/>
                </mxCell>
                <mxCell id="fSdOwEgVRoXUG8ocuiGU-21" value="Getting&lt;br&gt;Info" style="html=1;verticalAlign=bottom;endArrow=block;" edge="1" parent="fSdOwEgVRoXUG8ocuiGU-1">
                    <mxGeometry x="0.1" width="80" relative="1" as="geometry">
                        <mxPoint x="465" y="370" as="sourcePoint"/>
                        <mxPoint x="465" y="430" as="targetPoint"/>
                        <Array as="points">
                            <mxPoint x="510" y="370"/>
                            <mxPoint x="510" y="430"/>
                        </Array>
                        <mxPoint as="offset"/>
                    </mxGeometry>
                </mxCell>
            </root>
        </mxGraphModel>
    </diagram>
</mxfile>